Coordinates
version=1
nRows=17
nColumns=24
inDegrees=yes

Units are S.I. units (second, meters, Newtons, ...)
Angles are in degrees.

endheader
time	pelvis_tilt	pelvis_list	pelvis_rotation	pelvis_tx	pelvis_ty	pelvis_tz	hip_flexion_r	hip_adduction_r	hip_rotation_r	knee_angle_r	ankle_angle_r	subtalar_angle_r	mtp_angle_r	hip_flexion_l	hip_adduction_l	hip_rotation_l	knee_angle_l	ankle_angle_l	subtalar_angle_l	mtp_angle_l	lumbar_extension	lumbar_bending	lumbar_rotation
      7.14000000	     11.52544847	      1.40299063	      6.28614345	     -0.09221077	      0.89132303	      0.27748411	    -33.55810179	      3.95324229	     -3.60976694	     -9.95068980	     22.15774386	      6.86202723	      0.00000000	     12.80618318	      4.82083729	     10.39764851	     -7.97010697	      1.58607220	    -10.60296402	      0.00000000	    -20.83714217	      1.16430794	     -3.61825226
      7.15000000	     11.57405278	      1.58074869	      6.07208474	     -0.07587165	      0.89066447	      0.27552338	    -33.18132649	      3.33894168	     -4.83867027	    -12.48265391	     20.97704833	      8.32825063	      0.00000000	     13.29583421	      5.28271164	      9.11460039	    -10.95798396	      2.17570122	     -8.91832324	      0.00000000	    -20.58541387	      0.74811618	     -3.42537822
      7.16000000	     11.62134699	      1.82409788	      5.75183576	     -0.05938613	      0.89018462	      0.27363594	    -32.61229922	      2.53934215	     -6.07645769	    -15.28598285	     19.38848417	      9.55566297	      0.00000000	     13.55881972	      5.73877477	      8.07882140	    -13.42192778	      2.58256129	     -8.19240073	      0.00000000	    -20.33259269	      0.21049157	     -3.19411653
      7.17000000	     11.70779782	      2.08660162	      5.36145865	     -0.04301330	      0.89000184	      0.27178849	    -31.82942703	      1.60686088	     -7.28508493	    -18.41160393	     17.23096741	     10.62355190	      0.00000000	     13.62388873	      6.16300352	      7.20829005	    -15.46951646	      3.21543143	     -7.95708481	      0.00000000	    -20.16197154	     -0.36133791	     -2.95504578
      7.18000000	     11.81024065	      2.47099397	      4.96353108	     -0.02686958	      0.89006814	      0.27000212	    -30.82794128	      0.50908489	     -8.36639317	    -21.81294437	     14.53624347	     11.11384160	      0.00000000	     13.60331595	      6.68079843	      6.34261207	    -17.29669731	      3.97930310	     -8.10451666	      0.00000000	    -20.07165983	     -1.09594881	     -2.81388060
      7.19000000	     11.93038736	      2.83242160	      4.59065934	     -0.01115350	      0.89037727	      0.26827119	    -29.55926392	     -0.60082240	     -9.24158394	    -25.50025355	     11.27786195	     11.26542527	      0.00000000	     13.56358245	      7.13308311	      5.43421627	    -19.07066565	      5.27764143	     -7.97000127	      0.00000000	    -20.07376823	     -1.79300886	     -2.70606988
      7.20000000	     12.11472848	      3.22843732	      4.26436488	      0.00406966	      0.89096795	      0.26665767	    -28.11253053	     -1.71075678	     -9.83485475	    -29.38731346	      7.52339831	     10.74627625	      0.00000000	     13.42666968	      7.58341875	      4.53596744	    -20.80436928	      6.85185597	     -7.68090849	      0.00000000	    -20.24268310	     -2.53131440	     -2.71545301
      7.21000000	     12.32058922	      3.60218727	      3.97932039	      0.01876547	      0.89177818	      0.26511861	    -26.43417610	     -2.79281687	    -10.23236683	    -33.46409061	      3.51796256	      9.90642674	      0.00000000	     13.21289517	      7.97620509	      3.66722925	    -22.48650848	      8.69275890	     -7.05820590	      0.00000000	    -20.52018773	     -3.21616607	     -2.75899543
      7.22000000	     12.50267561	      3.97889941	      3.67417484	      0.03301227	      0.89279248	      0.26375227	    -24.50045118	     -3.87688499	    -10.36590560	    -37.68067351	     -0.49439930	      8.89116206	      0.00000000	     12.87832694	      8.32653782	      2.80483873	    -23.96086818	     10.68728376	     -6.11559770	      0.00000000	    -20.82543826	     -3.90397188	     -2.89425133
      7.23000000	     12.62979370	      4.30085543	      3.31540786	      0.04682517	      0.89402473	      0.26252933	    -22.30667250	     -4.88616143	    -10.17829760	    -41.93555773	     -4.42011664	      7.59479834	      0.00000000	     12.38596144	      8.62029558	      2.12275822	    -25.07598473	     12.45788291	     -5.37229755	      0.00000000	    -21.10099390	     -4.51630961	     -2.96699795
      7.24000000	     12.67685052	      4.63767387	      2.81737098	      0.06034622	      0.89546971	      0.26156959	    -19.85777288	     -5.90902570	     -9.67540874	    -46.17820805	     -7.82158413	      6.44328299	      0.00000000	     11.72953082	      8.87906877	      1.32694136	    -25.74782531	     14.14470005	     -4.42587320	      0.00000000	    -21.27658419	     -5.16509054	     -3.04447603
      7.25000000	     12.66081740	      4.90642089	      2.14441233	      0.07361407	      0.89718690	      0.26084244	    -17.20880632	     -6.81632609	     -8.79182860	    -50.27158863	    -10.63473271	      5.36586934	      0.00000000	     10.86391596	      9.08148887	      0.61324467	    -25.89439781	     15.40719923	     -3.92933767	      0.00000000	    -21.34198106	     -5.74408322	     -2.94026802
      7.26000000	     12.55601595	      5.11760223	      1.31905898	      0.08672552	      0.89908937	      0.26035159	    -14.38290790	     -7.58363394	     -7.61052310	    -54.14560955	    -12.49264698	      4.68584139	      0.00000000	      9.87561150	      9.21205858	     -0.21426988	    -25.61290110	     16.50110864	     -3.41884356	      0.00000000	    -21.24275164	     -6.27092477	     -2.75713868
      7.27000000	     12.41433125	      5.22135543	      0.37619591	      0.09970118	      0.90121471	      0.26003563	    -11.50269391	     -8.09731410	     -6.17168003	    -57.68531169	    -13.29057872	      4.44988714	      0.00000000	      8.73655426	      9.26679063	     -1.00768612	    -24.95059278	     17.32638605	     -3.16946136	      0.00000000	    -21.03707814	     -6.66959599	     -2.47176723
      7.28000000	     12.25255862	      5.18948870	     -0.59750178	      0.11255808	      0.90353621	      0.25979363	     -8.66409302	     -8.29026570	     -4.61041779	    -60.81287783	    -12.97607782	      4.70179818	      0.00000000	      7.48370667	      9.24003964	     -1.68391041	    -24.02146668	     17.93495230	     -3.14325893	      0.00000000	    -20.75704258	     -6.88560580	     -2.14416587
      7.29000000	     12.06909451	      5.01096108	     -1.50317370	      0.12528074	      0.90600223	      0.25951821	     -5.92974076	     -8.14200439	     -3.08076491	    -63.49404113	    -11.61495717	      5.40310579	      0.00000000	      6.17020722	      9.13099111	     -2.16037322	    -22.93072536	     18.35715641	     -3.32700275	      0.00000000	    -20.43237695	     -6.88529423	     -1.84867835
      7.30000000	     11.87952527	      4.70902705	     -2.26099502	      0.13783823	      0.90857873	      0.25911677	     -3.34845444	     -7.70592390	     -1.72832519	    -65.73409536	     -9.40864423	      6.48513168	      0.00000000	      4.82183000	      8.95830239	     -2.40129041	    -21.76116410	     18.62369484	     -3.70559613	      0.00000000	    -20.12068895	     -6.68386211	     -1.67894477
